<svg xmlns="http://www.w3.org/2000/svg" viewBox="0 0 1024 1024" role="img" aria-label="Diamond Draft app icon">
  <defs>
    <radialGradient id="background" cx="50%" cy="35%" r="75%">
      <stop offset="0" stop-color="#192b3b"/>
      <stop offset="0.55" stop-color="#0d1822"/>
      <stop offset="1" stop-color="#060a0f"/>
    </radialGradient>
    <linearGradient id="gold" x1="0" y1="0" x2="0" y2="1">
      <stop stop-color="#fff0a3"/>
      <stop offset="0.38" stop-color="#f5c542"/>
      <stop offset="0.72" stop-color="#aa7015"/>
      <stop offset="1" stop-color="#f0bc3d"/>
    </linearGradient>
    <linearGradient id="silver" x1="0" y1="0" x2="0" y2="1">
      <stop stop-color="#ffffff"/>
      <stop offset="0.44" stop-color="#e7ebee"/>
      <stop offset="0.72" stop-color="#939da6"/>
      <stop offset="1" stop-color="#f6f7f8"/>
    </linearGradient>
    <filter id="shadow" x="-25%" y="-25%" width="150%" height="170%">
      <feDropShadow dx="0" dy="16" stdDeviation="12" flood-color="#000000" flood-opacity="0.72"/>
    </filter>
  </defs>
  <rect width="1024" height="1024" fill="url(#background)"/>
  <path d="M512 88 914 512 512 936 110 512Z" fill="#09121a" fill-opacity="0.7" stroke="#6f4b13" stroke-width="58"/>
  <path d="M512 98 904 512 512 926 120 512Z" fill="none" stroke="url(#gold)" stroke-width="32"/>
  <g filter="url(#shadow)">
    <g transform="translate(395 135) scale(3.65625)">
      <circle cx="32" cy="32" r="29" fill="#fff" stroke="#b8b5ae" stroke-width="2.5"/>
      <g fill="none" stroke="#b4232d" stroke-linecap="round" stroke-linejoin="round">
        <path d="M16 8C35 17 35 47 16 56M48 8C29 17 29 47 48 56" stroke-width="2.75"/>
        <path d="m19 14 5-4m-.5 10 6-4m-3.5 9 7-1m-7 8h7m-8.5 7 6 4m-11 4 5.5 5M45 10l5 4m-15.5 2 6 4M31 24l7 1m-7 7h7m-4.5 11 6-4M39 52l5.5-5" stroke-width="2.1"/>
      </g>
    </g>
    <text x="512" y="560" fill="url(#silver)" stroke="#111820" stroke-width="18" paint-order="stroke fill" text-anchor="middle" font-family="Impact, Arial Narrow, sans-serif" font-size="196" letter-spacing="1">DIAMOND</text>
    <text x="512" y="748" fill="url(#gold)" stroke="#50350d" stroke-width="18" paint-order="stroke fill" text-anchor="middle" font-family="Impact, Arial Narrow, sans-serif" font-size="236" letter-spacing="3">DRAFT</text>
  </g>
  <path d="m512 800 22 45 50 7-36 35 8 50-44-23-44 23 8-50-36-35 50-7Z" fill="url(#gold)" stroke="#6c4912" stroke-width="7"/>
</svg>
