<svg xmlns="http://www.w3.org/2000/svg" viewBox="0 0 1024 1024" role="img" aria-label="Diamond Draft app icon">
  <defs>
    <radialGradient id="background" cx="50%" cy="35%" r="75%">
      <stop offset="0" stop-color="#192b3b"/>
      <stop offset="0.55" stop-color="#0d1822"/>
      <stop offset="1" stop-color="#060a0f"/>
    </radialGradient>
    <linearGradient id="gold" x1="0" y1="0" x2="0" y2="1">
      <stop stop-color="#fff0a3"/>
      <stop offset="0.38" stop-color="#f5c542"/>
      <stop offset="0.72" stop-color="#aa7015"/>
      <stop offset="1" stop-color="#f0bc3d"/>
    </linearGradient>
    <linearGradient id="silver" x1="0" y1="0" x2="0" y2="1">
      <stop stop-color="#ffffff"/>
      <stop offset="0.44" stop-color="#e7ebee"/>
      <stop offset="0.72" stop-color="#939da6"/>
      <stop offset="1" stop-color="#f6f7f8"/>
    </linearGradient>
    <radialGradient id="ball" cx="32%" cy="25%" r="75%">
      <stop stop-color="#ffffff"/>
      <stop offset="0.7" stop-color="#e5e1d8"/>
      <stop offset="1" stop-color="#a7a198"/>
    </radialGradient>
    <filter id="shadow" x="-25%" y="-25%" width="150%" height="170%">
      <feDropShadow dx="0" dy="16" stdDeviation="12" flood-color="#000000" flood-opacity="0.72"/>
    </filter>
  </defs>
  <rect width="1024" height="1024" fill="url(#background)"/>
  <path d="M512 88 914 512 512 936 110 512Z" fill="#09121a" fill-opacity="0.7" stroke="#6f4b13" stroke-width="58"/>
  <path d="M512 98 904 512 512 926 120 512Z" fill="none" stroke="url(#gold)" stroke-width="32"/>
  <g filter="url(#shadow)">
    <circle cx="512" cy="252" r="106" fill="url(#ball)" stroke="#77736d" stroke-width="8"/>
    <path d="M466 170c55 44 55 120 0 164M558 170c-55 44-55 120 0 164" fill="none" stroke="#b62932" stroke-width="13" stroke-dasharray="15 10"/>
    <text x="512" y="560" fill="url(#silver)" stroke="#111820" stroke-width="18" paint-order="stroke fill" text-anchor="middle" font-family="Impact, Arial Narrow, sans-serif" font-size="196" letter-spacing="1">DIAMOND</text>
    <text x="512" y="748" fill="url(#gold)" stroke="#50350d" stroke-width="18" paint-order="stroke fill" text-anchor="middle" font-family="Impact, Arial Narrow, sans-serif" font-size="236" letter-spacing="3">DRAFT</text>
  </g>
  <path d="m512 800 22 45 50 7-36 35 8 50-44-23-44 23 8-50-36-35 50-7Z" fill="url(#gold)" stroke="#6c4912" stroke-width="7"/>
</svg>
