<svg xmlns="http://www.w3.org/2000/svg" viewBox="0 0 1024 1024" role="img" aria-label="Diamond Draft app icon">
  <defs>
    <radialGradient id="background" cx="50%" cy="35%" r="75%">
      <stop offset="0" stop-color="#192b3b"/>
      <stop offset="0.55" stop-color="#0d1822"/>
      <stop offset="1" stop-color="#060a0f"/>
    </radialGradient>
    <linearGradient id="gold" x1="0" y1="0" x2="0" y2="1">
      <stop stop-color="#fff0a3"/>
      <stop offset="0.38" stop-color="#f5c542"/>
      <stop offset="0.72" stop-color="#aa7015"/>
      <stop offset="1" stop-color="#f0bc3d"/>
    </linearGradient>
    <linearGradient id="silver" x1="0" y1="0" x2="0" y2="1">
      <stop stop-color="#ffffff"/>
      <stop offset="0.44" stop-color="#e7ebee"/>
      <stop offset="0.72" stop-color="#939da6"/>
      <stop offset="1" stop-color="#f6f7f8"/>
    </linearGradient>
    <radialGradient id="ball" cx="32%" cy="25%" r="75%">
      <stop stop-color="#ffffff"/>
      <stop offset="0.7" stop-color="#e5e1d8"/>
      <stop offset="1" stop-color="#a7a198"/>
    </radialGradient>
    <filter id="shadow" x="-30%" y="-30%" width="160%" height="180%">
      <feDropShadow dx="0" dy="18" stdDeviation="14" flood-color="#000000" flood-opacity="0.7"/>
    </filter>
  </defs>
  <rect width="1024" height="1024" rx="168" fill="url(#background)"/>
  <path d="M512 142 854 512 512 882 170 512Z" fill="#09121a" fill-opacity="0.64" stroke="#73531c" stroke-width="42"/>
  <path d="M512 151 844 512 512 873 180 512Z" fill="none" stroke="url(#gold)" stroke-width="22"/>
  <path d="M512 188 810 512 512 836 214 512Z" fill="none" stroke="#ffe596" stroke-opacity="0.28" stroke-width="4"/>
  <g filter="url(#shadow)">
    <circle cx="512" cy="275" r="83" fill="url(#ball)" stroke="#77736d" stroke-width="6"/>
    <path d="M476 210c43 35 43 96 0 130M548 210c-43 35-43 96 0 130" fill="none" stroke="#b62932" stroke-width="10" stroke-dasharray="11 8"/>
    <text x="512" y="548" fill="url(#silver)" stroke="#111820" stroke-width="12" paint-order="stroke fill" text-anchor="middle" font-family="Impact, Arial Narrow, sans-serif" font-size="178" letter-spacing="4">DIAMOND</text>
    <text x="512" y="710" fill="url(#gold)" stroke="#50350d" stroke-width="12" paint-order="stroke fill" text-anchor="middle" font-family="Impact, Arial Narrow, sans-serif" font-size="210" letter-spacing="7">DRAFT</text>
  </g>
  <path d="m512 760 18 37 41 6-30 29 7 41-36-19-36 19 7-41-30-29 41-6Z" fill="url(#gold)" stroke="#6c4912" stroke-width="4"/>
</svg>
